<svg width="206" height="206" viewBox="0 0 206 206" fill="none" xmlns="http://www.w3.org/2000/svg">
<rect width="206" height="206" fill="#FAF000"/>
<path fill-rule="evenodd" clip-rule="evenodd" d="M100.048 71V95.7383C100.048 100.722 98.0677 105.502 94.5436 109.026L100.048 109.026C100.048 123.118 88.6231 134.543 74.5304 134.543H34V71H100.048ZM67.0109 85.5113C65.6292 85.5113 64.5091 86.6314 64.5091 88.0131V101.022C64.5091 102.403 65.6292 103.523 67.0109 103.523C68.3926 103.523 69.5127 102.403 69.5127 101.022V88.0131C69.5127 86.6314 68.3926 85.5113 67.0109 85.5113ZM64.5091 114.52C64.5091 113.139 65.6292 112.019 67.0109 112.019C68.3926 112.019 69.5127 113.139 69.5127 114.52V118.523C69.5127 119.905 68.3926 121.025 67.0109 121.025C65.6292 121.025 64.5091 119.905 64.5091 118.523V114.52ZM141.378 85.5156H171.4V134.549H105.353V71.0059H136.375V118.538C136.375 119.919 137.495 121.04 138.877 121.04C140.258 121.04 141.378 119.919 141.378 118.538V85.5156Z" fill="black"/>
</svg>
